<?xml version="1.0" encoding="UTF-8"?>
<svg width="328px" height="98px" viewBox="0 0 328 98" version="1.1" xmlns="http://www.w3.org/2000/svg" xmlns:xlink="http://www.w3.org/1999/xlink">
    <!-- Generator: Sketch 50.2 (55047) - http://www.bohemiancoding.com/sketch -->
    <title>logo</title>
    <desc>Created with Sketch.</desc>
    <defs></defs>
    <g id="Page-1" stroke="none" stroke-width="1" fill="none" fill-rule="evenodd">
        <g id="Desktop-Copy" transform="translate(-100.000000, -43.000000)" fill="#4A4A4A">
            <g id="logo" transform="translate(100.000000, 43.000000)">
                <path d="M138.636,63.504 C136.883991,63.504 135.372006,63.2580025 134.1,62.766 C132.827994,62.2739975 131.778004,61.5900044 130.95,60.714 C130.121996,59.8379956 129.510002,58.7940061 129.114,57.582 C128.717998,56.3699939 128.52,55.0320073 128.52,53.568 L128.52,38.052 L134.136,38.052 L134.136,53.1 C134.136,54.108005 134.249999,54.9659965 134.478,55.674 C134.706001,56.3820035 135.017998,56.9579978 135.414,57.402 C135.810002,57.8460022 136.289997,58.163999 136.854,58.356 C137.418003,58.548001 138.035997,58.644 138.708,58.644 C140.076007,58.644 141.185996,58.2240042 142.038,57.384 C142.890004,56.5439958 143.316,55.1160101 143.316,53.1 L143.316,38.052 L148.932,38.052 L148.932,53.568 C148.932,55.0320073 148.728002,56.3759939 148.32,57.6 C147.911998,58.8240061 147.288004,59.8739956 146.448,60.75 C145.607996,61.6260044 144.540006,62.3039976 143.244,62.784 C141.947994,63.2640024 140.412009,63.504 138.636,63.504 Z M159.408,59.148 C160.392005,59.148 161.087998,59.052001 161.496,58.86 C161.904002,58.667999 162.108,58.2960028 162.108,57.744 C162.108,57.3119978 161.844003,56.9340016 161.316,56.61 C160.787997,56.2859984 159.984005,55.920002 158.904,55.512 C158.063996,55.1999984 157.302003,54.8760017 156.618,54.54 C155.933997,54.2039983 155.352002,53.8020023 154.872,53.334 C154.391998,52.8659977 154.020001,52.3080032 153.756,51.66 C153.491999,51.0119968 153.36,50.2320046 153.36,49.32 C153.36,47.5439911 154.019993,46.1400052 155.34,45.108 C156.660007,44.0759948 158.471988,43.56 160.776,43.56 C161.928006,43.56 163.031995,43.661999 164.088,43.866 C165.144005,44.070001 165.983997,44.2919988 166.608,44.532 L165.672,48.708 C165.047997,48.4919989 164.370004,48.3000008 163.638,48.132 C162.905996,47.9639992 162.084005,47.88 161.172,47.88 C159.491992,47.88 158.652,48.3479953 158.652,49.284 C158.652,49.5000011 158.688,49.6919992 158.76,49.86 C158.832,50.0280008 158.975999,50.1899992 159.192,50.346 C159.408001,50.5020008 159.701998,50.6699991 160.074,50.85 C160.446002,51.0300009 160.919997,51.2279989 161.496,51.444 C162.672006,51.8760022 163.643996,52.3019979 164.412,52.722 C165.180004,53.1420021 165.785998,53.5979975 166.23,54.09 C166.674002,54.5820025 166.985999,55.127997 167.166,55.728 C167.346001,56.328003 167.436,57.023996 167.436,57.816 C167.436,59.6880094 166.734007,61.1039952 165.33,62.064 C163.925993,63.0240048 161.940013,63.504 159.372,63.504 C157.691992,63.504 156.294006,63.3600014 155.178,63.072 C154.061994,62.7839986 153.288002,62.544001 152.856,62.352 L153.756,57.996 C154.668005,58.3560018 155.603995,58.637999 156.564,58.842 C157.524005,59.046001 158.471995,59.148 159.408,59.148 Z M170.532,53.676 C170.532,51.9959916 170.789997,50.5260063 171.306,49.266 C171.822003,48.0059937 172.499996,46.9560042 173.34,46.116 C174.180004,45.2759958 175.145995,44.6400022 176.238,44.208 C177.330005,43.7759978 178.451994,43.56 179.604,43.56 C182.292013,43.56 184.415992,44.3819918 185.976,46.026 C187.536008,47.6700082 188.316,50.087984 188.316,53.28 C188.316,53.5920016 188.304,53.9339981 188.28,54.306 C188.256,54.6780019 188.232,55.0079986 188.208,55.296 L176.04,55.296 C176.160001,56.4000055 176.675995,57.2759968 177.588,57.924 C178.500005,58.5720032 179.723992,58.896 181.26,58.896 C182.244005,58.896 183.209995,58.8060009 184.158,58.626 C185.106005,58.4459991 185.879997,58.2240013 186.48,57.96 L187.2,62.316 C186.911999,62.4600007 186.528002,62.6039993 186.048,62.748 C185.567998,62.8920007 185.034003,63.0179995 184.446,63.126 C183.857997,63.2340005 183.228003,63.3239996 182.556,63.396 C181.883997,63.4680004 181.212003,63.504 180.54,63.504 C178.835991,63.504 177.354006,63.2520025 176.094,62.748 C174.833994,62.2439975 173.790004,61.5540044 172.962,60.678 C172.133996,59.8019956 171.522002,58.764006 171.126,57.564 C170.729998,56.363994 170.532,55.068007 170.532,53.676 Z M183.132,51.624 C183.108,51.1679977 183.030001,50.7240022 182.898,50.292 C182.765999,49.8599978 182.562001,49.4760017 182.286,49.14 C182.009999,48.8039983 181.662002,48.5280011 181.242,48.312 C180.821998,48.0959989 180.300003,47.988 179.676,47.988 C179.075997,47.988 178.560002,48.089999 178.128,48.294 C177.695998,48.498001 177.336001,48.7679983 177.048,49.104 C176.759999,49.4400017 176.538001,49.8299978 176.382,50.274 C176.225999,50.7180022 176.112,51.1679977 176.04,51.624 L183.132,51.624 Z M203.868,48.816 C203.387998,48.6959994 202.824003,48.5700007 202.176,48.438 C201.527997,48.3059993 200.832004,48.24 200.088,48.24 C199.751998,48.24 199.350002,48.2699997 198.882,48.33 C198.413998,48.3900003 198.060001,48.4559996 197.82,48.528 L197.82,63 L192.456,63 L192.456,45.072 C193.416005,44.7359983 194.549993,44.4180015 195.858,44.118 C197.166007,43.8179985 198.623992,43.668 200.232,43.668 C200.520001,43.668 200.867998,43.6859998 201.276,43.722 C201.684002,43.7580002 202.091998,43.8059997 202.5,43.866 C202.908002,43.9260003 203.315998,43.9979996 203.724,44.082 C204.132002,44.1660004 204.479999,44.2679994 204.768,44.388 L203.868,48.816 Z M223.452,58.716 C224.244004,58.716 224.897997,58.6500007 225.414,58.518 C225.930003,58.3859993 226.343998,58.2060011 226.656,57.978 C226.968002,57.7499989 227.183999,57.4800016 227.304,57.168 C227.424001,56.8559984 227.484,56.5080019 227.484,56.124 C227.484,55.3079959 227.100004,54.6300027 226.332,54.09 C225.563996,53.5499973 224.244009,52.9680031 222.372,52.344 C221.555996,52.0559986 220.740004,51.7260019 219.924,51.354 C219.107996,50.9819981 218.376003,50.5140028 217.728,49.95 C217.079997,49.3859972 216.552002,48.702004 216.144,47.898 C215.735998,47.093996 215.532,46.1160058 215.532,44.964 C215.532,43.8119942 215.747998,42.7740046 216.18,41.85 C216.612002,40.9259954 217.223996,40.1400032 218.016,39.492 C218.808004,38.8439968 219.767994,38.3460017 220.896,37.998 C222.024006,37.6499983 223.295993,37.476 224.712,37.476 C226.392008,37.476 227.843994,37.6559982 229.068,38.016 C230.292006,38.3760018 231.299996,38.7719978 232.092,39.204 L230.472,43.632 C229.775997,43.2719982 229.002004,42.9540014 228.15,42.678 C227.297996,42.4019986 226.272006,42.264 225.072,42.264 C223.727993,42.264 222.762003,42.4499981 222.174,42.822 C221.585997,43.1940019 221.292,43.7639962 221.292,44.532 C221.292,44.9880023 221.399999,45.3719984 221.616,45.684 C221.832001,45.9960016 222.137998,46.2779987 222.534,46.53 C222.930002,46.7820013 223.385997,47.009999 223.902,47.214 C224.418003,47.418001 224.987997,47.6279989 225.612,47.844 C226.908006,48.3240024 228.035995,48.7979977 228.996,49.266 C229.956005,49.7340023 230.753997,50.2799969 231.39,50.904 C232.026003,51.5280031 232.499998,52.2599958 232.812,53.1 C233.124002,53.9400042 233.28,54.959994 233.28,56.16 C233.28,58.4880116 232.464008,60.2939936 230.832,61.578 C229.199992,62.8620064 226.740016,63.504 223.452,63.504 C222.347994,63.504 221.352004,63.4380007 220.464,63.306 C219.575996,63.1739993 218.790003,63.012001 218.106,62.82 C217.421997,62.627999 216.834002,62.4240011 216.342,62.208 C215.849998,61.9919989 215.436002,61.788001 215.1,61.596 L216.684,57.132 C217.428004,57.540002 218.345995,57.9059984 219.438,58.23 C220.530005,58.5540016 221.867992,58.716 223.452,58.716 Z M236.34,53.676 C236.34,51.9959916 236.597997,50.5260063 237.114,49.266 C237.630003,48.0059937 238.307996,46.9560042 239.148,46.116 C239.988004,45.2759958 240.953995,44.6400022 242.046,44.208 C243.138005,43.7759978 244.259994,43.56 245.412,43.56 C248.100013,43.56 250.223992,44.3819918 251.784,46.026 C253.344008,47.6700082 254.124,50.087984 254.124,53.28 C254.124,53.5920016 254.112,53.9339981 254.088,54.306 C254.064,54.6780019 254.04,55.0079986 254.016,55.296 L241.848,55.296 C241.968001,56.4000055 242.483995,57.2759968 243.396,57.924 C244.308005,58.5720032 245.531992,58.896 247.068,58.896 C248.052005,58.896 249.017995,58.8060009 249.966,58.626 C250.914005,58.4459991 251.687997,58.2240013 252.288,57.96 L253.008,62.316 C252.719999,62.4600007 252.336002,62.6039993 251.856,62.748 C251.375998,62.8920007 250.842003,63.0179995 250.254,63.126 C249.665997,63.2340005 249.036003,63.3239996 248.364,63.396 C247.691997,63.4680004 247.020003,63.504 246.348,63.504 C244.643991,63.504 243.162006,63.2520025 241.902,62.748 C240.641994,62.2439975 239.598004,61.5540044 238.77,60.678 C237.941996,59.8019956 237.330002,58.764006 236.934,57.564 C236.537998,56.363994 236.34,55.068007 236.34,53.676 Z M248.94,51.624 C248.916,51.1679977 248.838001,50.7240022 248.706,50.292 C248.573999,49.8599978 248.370001,49.4760017 248.094,49.14 C247.817999,48.8039983 247.470002,48.5280011 247.05,48.312 C246.629998,48.0959989 246.108003,47.988 245.484,47.988 C244.883997,47.988 244.368002,48.089999 243.936,48.294 C243.503998,48.498001 243.144001,48.7679983 242.856,49.104 C242.567999,49.4400017 242.346001,49.8299978 242.19,50.274 C242.033999,50.7180022 241.92,51.1679977 241.848,51.624 L248.94,51.624 Z M265.5,59.256 C266.028003,59.256 266.531998,59.2440001 267.012,59.22 C267.492002,59.1959999 267.875999,59.1600002 268.164,59.112 L268.164,55.044 C267.947999,54.9959998 267.624002,54.9480002 267.192,54.9 C266.759998,54.8519998 266.364002,54.828 266.004,54.828 C265.499997,54.828 265.026002,54.8579997 264.582,54.918 C264.137998,54.9780003 263.748002,55.0919992 263.412,55.26 C263.075998,55.4280008 262.812001,55.6559986 262.62,55.944 C262.427999,56.2320014 262.332,56.5919978 262.332,57.024 C262.332,57.8640042 262.613997,58.4459984 263.178,58.77 C263.742003,59.0940016 264.515995,59.256 265.5,59.256 Z M265.068,43.56 C266.652008,43.56 267.971995,43.7399982 269.028,44.1 C270.084005,44.4600018 270.929997,44.9759966 271.566,45.648 C272.202003,46.3200034 272.651999,47.1359952 272.916,48.096 C273.180001,49.0560048 273.312,50.1239941 273.312,51.3 L273.312,62.46 C272.543996,62.6280008 271.476007,62.8259989 270.108,63.054 C268.739993,63.2820011 267.08401,63.396 265.14,63.396 C263.915994,63.396 262.806005,63.2880011 261.81,63.072 C260.813995,62.8559989 259.956004,62.5020025 259.236,62.01 C258.515996,61.5179975 257.964002,60.876004 257.58,60.084 C257.195998,59.291996 257.004,58.3200058 257.004,57.168 C257.004,56.0639945 257.225998,55.1280038 257.67,54.36 C258.114002,53.5919962 258.707996,52.9800023 259.452,52.524 C260.196004,52.0679977 261.047995,51.738001 262.008,51.534 C262.968005,51.329999 263.963995,51.228 264.996,51.228 C265.692003,51.228 266.309997,51.2579997 266.85,51.318 C267.390003,51.3780003 267.827998,51.4559995 268.164,51.552 L268.164,51.048 C268.164,50.1359954 267.888003,49.4040028 267.336,48.852 C266.783997,48.2999972 265.824007,48.024 264.456,48.024 C263.543995,48.024 262.644004,48.0899993 261.756,48.222 C260.867996,48.3540007 260.100003,48.5399988 259.452,48.78 L258.768,44.46 C259.080002,44.3639995 259.469998,44.2620005 259.938,44.154 C260.406002,44.0459995 260.915997,43.9500004 261.468,43.866 C262.020003,43.7819996 262.601997,43.7100003 263.214,43.65 C263.826003,43.5899997 264.443997,43.56 265.068,43.56 Z M289.584,48.816 C289.103998,48.6959994 288.540003,48.5700007 287.892,48.438 C287.243997,48.3059993 286.548004,48.24 285.804,48.24 C285.467998,48.24 285.066002,48.2699997 284.598,48.33 C284.129998,48.3900003 283.776001,48.4559996 283.536,48.528 L283.536,63 L278.172,63 L278.172,45.072 C279.132005,44.7359983 280.265993,44.4180015 281.574,44.118 C282.882007,43.8179985 284.339992,43.668 285.948,43.668 C286.236001,43.668 286.583998,43.6859998 286.992,43.722 C287.400002,43.7580002 287.807998,43.8059997 288.216,43.866 C288.624002,43.9260003 289.031998,43.9979996 289.44,44.082 C289.848002,44.1660004 290.195999,44.2679994 290.484,44.388 L289.584,48.816 Z M292.104,53.532 C292.104,52.1639932 292.325998,50.8740061 292.77,49.662 C293.214002,48.4499939 293.855996,47.3940045 294.696,46.494 C295.536004,45.5939955 296.555994,44.8800026 297.756,44.352 C298.956006,43.8239974 300.323992,43.56 301.86,43.56 C302.868005,43.56 303.791996,43.6499991 304.632,43.83 C305.472004,44.0100009 306.287996,44.2679983 307.08,44.604 L305.964,48.888 C305.459997,48.695999 304.908003,48.5280007 304.308,48.384 C303.707997,48.2399993 303.036004,48.168 302.292,48.168 C300.707992,48.168 299.526004,48.6599951 298.746,49.644 C297.965996,50.6280049 297.576,51.923992 297.576,53.532 C297.576,55.2360085 297.941996,56.5559953 298.674,57.492 C299.406004,58.4280047 300.683991,58.896 302.508,58.896 C303.156003,58.896 303.851996,58.8360006 304.596,58.716 C305.340004,58.5959994 306.023997,58.4040013 306.648,58.14 L307.404,62.532 C306.779997,62.7960013 306.000005,63.023999 305.064,63.216 C304.127995,63.408001 303.096006,63.504 301.968,63.504 C300.239991,63.504 298.752006,63.2460026 297.504,62.73 C296.255994,62.2139974 295.230004,61.5120044 294.426,60.624 C293.621996,59.7359956 293.034002,58.6860061 292.662,57.474 C292.289998,56.2619939 292.104,54.9480071 292.104,53.532 Z M311.004,63 L311.004,35.928 L316.368,35.064 L316.368,44.136 C316.728002,44.0159994 317.189997,43.9020005 317.754,43.794 C318.318003,43.6859995 318.863997,43.632 319.392,43.632 C320.928008,43.632 322.205995,43.8419979 323.226,44.262 C324.246005,44.6820021 325.061997,45.2759962 325.674,46.044 C326.286003,46.8120038 326.717999,47.7239947 326.97,48.78 C327.222001,49.8360053 327.348,51.0119935 327.348,52.308 L327.348,63 L321.984,63 L321.984,52.956 C321.984,51.2279914 321.762002,50.0040036 321.318,49.284 C320.873998,48.5639964 320.052006,48.204 318.852,48.204 C318.371998,48.204 317.922002,48.2459996 317.502,48.33 C317.081998,48.4140004 316.704002,48.5039995 316.368,48.6 L316.368,63 L311.004,63 Z" id="User-Search"></path>
                <path d="M50,0 C22.3876953,0 0,22.3876953 0,50 C0,72.0947266 14.325,90.8325195 34.1949219,97.4425781 C36.6943359,97.9003906 37.6068359,96.3561523 37.6068359,95.037793 C37.6068359,93.8475586 37.5610352,89.9047852 37.5366211,85.7299805 C23.6328125,88.7511719 20.6939453,79.8339844 20.6939453,79.8339844 C18.4173828,74.0600586 15.1427734,72.5219727 15.1427734,72.5219727 C10.5987305,69.4213867 15.4875,69.4824219 15.4875,69.4824219 C20.5076172,69.8302734 23.1505859,74.6337891 23.1505859,74.6337891 C27.6123047,82.2753906 34.8571289,80.065918 37.7013672,78.7841797 C38.1558594,75.5615234 39.4498047,73.3520508 40.8751953,72.1069336 C29.7759766,70.8435547 18.1,66.5527344 18.1,47.39375 C18.1,41.9310547 20.0500977,37.4755859 23.2421875,33.9751953 C22.7325195,32.7056641 21.0113281,27.6183594 23.7365234,20.7367187 C23.7365234,20.7367187 27.9296875,19.3939453 37.4876953,25.8636719 C41.4732422,24.7498047 45.7488281,24.2004883 49.9999023,24.1821289 C54.2479492,24.2004883 58.5264648,24.7558594 62.5182617,25.8697266 C72.0581055,19.3939453 76.2573242,20.7427734 76.2573242,20.7427734 C78.9916992,27.6305664 77.2705078,32.7117188 76.7578125,33.9751953 C79.9621094,37.4755859 81.8969727,41.9311523 81.8969727,47.39375 C81.8969727,66.6015625 70.2026367,70.83125 59.0637695,72.0703125 C60.8643555,73.6206055 62.4573242,76.6601562 62.4573242,81.3232422 C62.4573242,88.0066406 62.3901367,93.3959961 62.3901367,95.0439453 C62.3901367,96.3745117 63.2995117,97.9308594 65.8325195,97.4425781 C85.6873047,90.8203125 100,72.0825195 100,50 C100,22.3876953 77.6123047,0 50,0 Z" id="Shape" fill-rule="nonzero"></path>
            </g>
        </g>
    </g>
</svg>